<svg version="1.1" id="Слой_1" xmlns="http://www.w3.org/2000/svg" xmlns:xlink="http://www.w3.org/1999/xlink" x="0px" y="0px"
	 viewBox="0 0 867.9 867.9" style="enable-background:new 0 0 867.9 867.9;" xml:space="preserve">
<style type="text/css">
	.st0{fill:none;}
	.st1{fill:#45668E;}
</style>
<rect id="canvas_background" x="-6.1" y="-4" class="st0" width="1026" height="1026"/>
<g transform="translate(0,1024) scale(0.10000000149011612,-0.10000000149011612) ">
	<path class="st1" d="M4029.4,10229.2c-1036-77-1981-503-2723-1228c-976-952-1444-2300-1271-3654c216-1693,1410-3103,3050-3602
		c1268-386,2679-157,3754,608c1321,941,2008,2502,1804,4100c-216,1693-1410,3103-3050,3602
		C5105.4,10204.2,4536.4,10267.2,4029.4,10229.2z M4360.4,7540.2c222-22,333-57,383-122c13-18,34-62,46-98c26-76,27-163,11-813
		c-10-406-4-531,29-621c39-103,125-150,201-111c69,36,230,213,335,370c243,360,391,639,569,1070c36,85,84,141,134,154
		c20,6,303,11,651,12l615,2l52-22c67-30,93-69,93-140c0-135-141-412-383-751c-33-47-158-213-277-370c-263-346-320-427-360-511
		c-50-106-38-193,41-296c23-29,139-146,258-260c333-319,484-487,607-671c88-133,122-231,108-315c-7-46-53-101-105-128
		c-62-31-157-37-680-44l-495-7l-80,27c-204,68-340,181-649,539c-171,198-298,295-386,296c-81,0-184-108-228-242
		c-30-90-41-159-50-315c-11-184-33-227-146-274c-41-18-551-24-686-10c-271,30-522,115-771,262c-361,212-582,402-819,704
		c-412,526-693,974-1034,1650c-132,263-287,603-312,684c-25,84,11,153,93,179c28,9,184,14,544,19l505,5l59-22c93-36,132-82,195-235
		c54-129,345-713,436-876c93-165,192-303,277-385c105-103,152-128,226-122c63,6,80,20,119,105c95,205,110,898,25,1170
		c-49,155-122,214-324,257c-35,8-35,20-3,67c78,112,217,166,482,188C3811.4,7551.2,4241.4,7552.2,4360.4,7540.2z"/>
</g>
</svg>
