<svg version="1.1" id="Слой_1" xmlns="http://www.w3.org/2000/svg" xmlns:xlink="http://www.w3.org/1999/xlink" x="0px" y="0px"
	 viewBox="0 0 867.3 867.4" style="enable-background:new 0 0 867.3 867.4;" xml:space="preserve">
<style type="text/css">
	.st0{fill:#3B5998;}
</style>
<g>
	<g transform="translate(0,1024) scale(0.10000000149011612,-0.10000000149011612)">
		<path class="st0" d="M4075.8,10232c-559-33-1115-178-1618-420c-1221-588-2102-1719-2371-3044c-189-929-67-1900,344-2750
			c589-1219,1718-2097,3041-2365c929-189,1900-67,2750,344c878,424,1597,1143,2021,2021c202,418,335,865,394,1324
			c109,840-28,1690-394,2446c-424,878-1143,1597-2021,2021C5556.8,10131,4814.8,10277,4075.8,10232z M5844.8,7871l-3-473l-460-5
			c-520-6-488,0-544-88c-57-91-61-122-61-494v-338h535h535v-445v-445h-535h-535V4253V2923h-515h-515v1330v1330h-460h-460v445v445
			h460h460v321c0,349,10,457,56,616c126,434,462,783,857,888c144,39,206,42,715,44l472,1L5844.8,7871z"/>
	</g>
</g>
</svg>
