<svg version="1.1" id="Слой_1" xmlns="http://www.w3.org/2000/svg" xmlns:xlink="http://www.w3.org/1999/xlink" x="0px" y="0px"
	 viewBox="0 0 27 27" style="enable-background:new 0 0 27 27;" xml:space="preserve">
<style type="text/css">
	.st0{fill:#DBDBDB;}
</style>
<g>
	<path class="st0" d="M13.5,0.5c7.2,0,13,5.8,13,13s-5.8,13-13,13s-13-5.8-13-13S6.3,0.5,13.5,0.5 M13.5,0C6,0,0,6,0,13.5
		S6,27,13.5,27S27,20.9,27,13.5S20.9,0,13.5,0L13.5,0z"/>
	<path d="M16,22h-2.3h-2.3c0,0,0-1.3,0-2.3c-3.1,0.7-4-1.7-4-1.7c-0.6-1.1-1.1-1.7-1.1-1.7c-1.1-0.7,0-0.6,0-0.6
		c1.1,0,1.7,1.1,1.7,1.1c1,1.7,2.8,1.4,3.4,1.1c0-0.6,0.2-1.4,0.6-1.7c-2.5-0.3-4.5-1.7-4.5-4.5s0.6-3.4,1.1-4
		C8.5,7.5,8.1,6.5,8.7,5c0,0,1.1,0,2.2,1.7c0.6-0.6,2.3-0.6,2.8-0.6c0.6,0,2.3,0,2.8,0.6C17.7,5,18.8,5,18.8,5
		c0.6,1.5,0.1,2.6,0,2.8c0.6,0.6,1.1,1.1,1.1,4s-2.1,4.3-4.5,4.5c0.3,0.3,0.6,1.3,0.6,1.7L16,22L16,22z"/>
</g>
</svg>
